<?xml version="1.0" encoding="utf-8"?>
<!-- Generator: Adobe Illustrator 18.0.0, SVG Export Plug-In . SVG Version: 6.00 Build 0)  -->
<!DOCTYPE svg PUBLIC "-//W3C//DTD SVG 1.1//EN" "http://www.w3.org/Graphics/SVG/1.1/DTD/svg11.dtd">
<svg version="1.1" id="Layer_1" xmlns="http://www.w3.org/2000/svg" xmlns:xlink="http://www.w3.org/1999/xlink" x="0px" y="0px"
	 viewBox="0 0 190.5 50" enable-background="new 0 0 190.5 50" xml:space="preserve">
<g>
	<polygon fill="#AB3793" points="0,0.4 36.7,0.4 36.7,10.7 17.6,5.7 9,37.1 0,37.1 	"/>
	<polygon fill="#231F20" points="17.5,5.6 36.7,10.6 36.7,37.1 8.9,37.1 	"/>
	<g>
		<path fill="#FFFFFF" d="M36.8,37.1c-1.1-1.1-2.1-2.3-3.1-3.5c1.6-1.7,2.5-4,3-6.5h-4c-0.2,1.3-0.7,2.8-1.4,3.8
			c-0.7-0.7-1.5-1.7-2.2-2.5v-0.1c2.2-1.1,3.2-2.6,3.2-4.3c0-2.5-2.1-4.1-4.9-4.1c-3.7,0-5.4,2.4-5.4,4.6c0,1.2,0.6,2.5,1.3,3.1v0.1
			c-2,1-3.2,2.6-3.2,4.8c0,2.3,1.8,4.8,6.2,4.8c2.1,0,3.6-0.6,4.5-1.3c0.3,0.4,0.6,0.7,0.9,1H36.8z M26.8,33.7
			c-1.6,0-2.5-1.1-2.5-2.3c0-0.8,0.4-1.4,1-1.9c1.2,1.3,2.3,2.6,3.4,3.6C28.2,33.4,27.6,33.7,26.8,33.7L26.8,33.7z M27.2,22.3
			c0.8,0,1.3,0.8,1.3,1.5c0,0.8-0.4,1.3-1.4,2.1c-0.8-0.8-1.1-1.5-1.1-2.2C25.9,23,26.4,22.3,27.2,22.3L27.2,22.3z"/>
		<path fill="#231F20" d="M121.2,41.3c0.4-0.1,0.8-0.1,1.5-0.1c2.6,0,3.8,1.4,3.8,3.5c0,2.4-1.3,3.8-3.9,3.8c-0.5,0-1,0-1.3-0.1
			V41.3z M120.6,48.9c0.6,0.1,1.2,0.1,1.8,0.1c1.6,0,2.8-0.5,3.5-1.2c0.7-0.8,1.1-1.9,1.1-3.1c0-1.2-0.4-2.2-1-2.8
			c-0.7-0.7-1.8-1.1-3.3-1.1c-0.8,0-1.5,0.1-2.1,0.2V48.9z M113.6,48.9v-4.1c0-1.4,0-2.2-0.1-3.2l0,0c0.4,0.8,1,1.7,1.6,2.6l3.1,4.7
			h0.5v-8.2h-0.6v4.1c0,1.3,0,2.2,0.1,3.3l0,0c-0.4-0.8-0.9-1.5-1.5-2.6l-3.2-4.8h-0.5v8.2H113.6z M107.4,45.6l1-2.7
			c0.2-0.5,0.3-0.9,0.4-1.4h0c0.1,0.5,0.2,0.9,0.4,1.4l1,2.7H107.4z M110.4,46.1l1,2.9h0.6l-2.9-8.2h-0.6l-3,8.2h0.6l1-2.9H110.4z
			 M100.6,48.9h4.2v-0.5h-3.6v-7.7h-0.6V48.9z M94.9,48.5c0.4,0.3,1.2,0.6,1.9,0.6c1.7,0,2.6-1.1,2.6-2.3c0-1.2-0.7-1.8-2.1-2.4
			c-1.2-0.5-1.7-0.9-1.7-1.8c0-0.6,0.4-1.5,1.8-1.5c0.7,0,1.2,0.2,1.4,0.4l0.2-0.5c-0.3-0.2-0.9-0.4-1.6-0.4c-1.4,0-2.4,0.9-2.4,2.1
			c0,1.1,0.8,1.8,2.1,2.3c1.2,0.5,1.7,1,1.7,1.9c0,1-0.8,1.7-2,1.7c-0.7,0-1.3-0.2-1.8-0.5L94.9,48.5z M88.6,48.9v-4.1
			c0-1.4,0-2.2-0.1-3.2l0,0c0.4,0.8,1,1.7,1.6,2.6l3.1,4.7h0.5v-8.2h-0.6v4.1c0,1.3,0,2.2,0.1,3.3l0,0c-0.4-0.8-0.9-1.5-1.5-2.6
			l-3.2-4.8H88v8.2H88.6z M86.5,44.4h-3.3v-3.1h3.4v-0.5h-4v8.2h4.2v-0.5h-3.6v-3.6h3.3V44.4z M81.1,44.4h-3.3v-3.1h3.4v-0.5h-4v8.2
			h4.2v-0.5h-3.6v-3.6h3.3V44.4z M69.9,40.8v5c0,2.5,1.3,3.3,2.7,3.3c1.5,0,2.9-0.9,2.9-3.4v-4.9h-0.6v4.9c0,2-0.9,2.9-2.3,2.9
			c-1.2,0-2.2-0.8-2.2-2.9v-4.9H69.9z M65,48.6c-1.9,0-3-1.8-3-3.7c0-1.9,1-3.8,3-3.8c2,0,3,2,3,3.7C68,46.8,66.9,48.6,65,48.6
			 M68.7,49.5c-0.7-0.1-1.7-0.4-2.7-0.6v0c1.5-0.5,2.6-1.8,2.6-4.1c0-2.5-1.5-4.1-3.5-4.1c-2.1,0-3.7,1.6-3.7,4.3
			c0,2.6,1.6,4.1,3.6,4.1c0.1,0,0.3,0.1,0.5,0.1c0.8,0.3,2,0.6,3.1,0.8L68.7,49.5z"/>
		<path fill="#231F20" d="M51.6,29.4c0,0.4,0,0.9-0.1,1.3c-0.2,0.9-1,1.7-2.2,1.7c-1.7,0-2.8-1.6-2.8-3.9c0-2.7,1.3-4.2,2.8-4.2
			c1.1,0,1.9,0.7,2.2,1.9c0,0.2,0.1,0.5,0.1,0.8V29.4z M58,20h-5.4l-0.2,1.8h-0.1c-0.9-1.4-2.3-2.2-4.4-2.2c-4.3,0-7.8,3.6-7.8,9
			c0,5,3,8.3,7.2,8.3c1.7,0,3.2-0.6,4.3-1.9h0.1v0.8c0,2.6-1.7,3.9-4,3.9c-1.9,0-3.9-0.7-4.9-1.3l-1.2,4.7c1.6,0.8,4,1.3,6.4,1.3
			c2.6,0,5.3-0.5,7.2-2.1c2.1-1.8,2.7-4.7,2.7-7.7v-9.4C57.9,22.6,57.9,21.1,58,20"/>
		<path fill="#231F20" d="M70.9,30.7c0,0.3,0,0.6-0.1,0.9c-0.3,0.9-1.3,1.6-2.2,1.6c-1.1,0-1.8-0.6-1.8-1.6c0-1.5,1.4-2.2,4-2.2
			V30.7z M77.3,37.2C77.1,36.3,77,34.7,77,33v-5.8c0-4.3-2.1-7.5-7.9-7.5c-3.5,0-6,1-7.1,1.6l1.1,3.9c1.1-0.6,3-1.3,4.8-1.3
			c2.3,0,2.8,0.8,2.8,1.5v0.1c-5.8,0-10,2.1-10,6.6c0,2.9,2.2,5.4,5.7,5.4c1.8,0,3.5-0.5,4.7-1.9h0.1l0.3,1.5H77.3z"/>
	</g>
	<rect x="80.8" y="19.9" fill="#231F20" width="6.3" height="17.3"/>
	<rect x="91" y="19.9" fill="#231F20" width="6.3" height="17.3"/>
	<g>
		<path fill="#231F20" d="M111.3,26.6h-5.1c0.1-1.1,0.8-2.8,2.7-2.8C110.8,23.8,111.3,25.6,111.3,26.6 M117.1,28.4
			c0-4.7-2.4-8.8-7.9-8.8c-6.3,0-8.9,5.1-8.9,9.1c0,5.4,3.4,8.7,9.4,8.7c2.1,0,4.3-0.3,6.4-1.1l-0.8-4.2c-1.5,0.5-3.1,0.7-4.7,0.7
			c-2.2,0-4.2-0.8-4.4-2.1h10.6C116.9,30.4,117.1,29.4,117.1,28.4"/>
		<path fill="#231F20" d="M119.9,37.2h6.3v-8.5c0-0.4,0-0.8,0.1-1.1c0.3-1.4,1.6-2.2,3.4-2.2c0.7,0,1.1,0.1,1.6,0.2v-5.9
			c-0.5-0.1-0.7-0.1-1.3-0.1c-1.5,0-3.7,0.9-4.6,3.5h-0.1l-0.2-3.1h-5.4c0.1,1.4,0.1,3.1,0.1,5.8V37.2z"/>
	</g>
	<rect x="133.8" y="26.2" fill="#231F20" width="6.3" height="10.9"/>
	<rect x="133.8" y="19.7" fill="#231F20" width="6.3" height="6"/>
	<g>
		<path fill="#231F20" d="M154.1,26.6H149c0.1-1.1,0.8-2.8,2.7-2.8C153.6,23.8,154.1,25.6,154.1,26.6 M159.8,28.4
			c0-4.7-2.4-8.8-7.9-8.8c-6.3,0-8.9,5.1-8.9,9.1c0,5.4,3.4,8.7,9.4,8.7c2.1,0,4.3-0.3,6.4-1.1l-0.8-4.2c-1.5,0.5-3.1,0.7-4.7,0.7
			c-2.2,0-4.2-0.8-4.4-2.1h10.6C159.7,30.4,159.8,29.4,159.8,28.4"/>
		<path fill="#231F20" d="M161.8,36.3c1.4,0.7,3.5,1.2,5.9,1.2c5.3,0,7.8-2.5,7.8-5.7c0-2.4-1.3-4.2-4.7-5.3c-2-0.7-2.6-1-2.6-1.6
			c0-0.7,0.6-1,1.7-1c1.4,0,3,0.6,3.8,0.9l1-4.2c-1.1-0.5-3-1-5.1-1c-4.5,0-7.4,2.5-7.4,5.9c0,2,1.3,4,5,5.2
			c1.8,0.6,2.2,0.8,2.2,1.5c0,0.7-0.5,0.9-1.9,0.9c-1.5,0-3.8-0.7-4.7-1.3L161.8,36.3z"/>
		<path fill="#231F20" d="M176.8,16.6c1.4,0.7,3.5,1.2,5.9,1.2c5.3,0,7.8-2.5,7.8-5.7c0-2.4-1.3-4.2-4.7-5.3c-2-0.7-2.6-1-2.6-1.6
			c0-0.7,0.6-1,1.7-1c1.4,0,3,0.6,3.8,0.9l1-4.2c-1.1-0.5-3-1-5.1-1c-4.5,0-7.4,2.5-7.4,5.9c0,2,1.3,4,5,5.2
			c1.8,0.6,2.2,0.8,2.2,1.5c0,0.7-0.5,0.9-1.9,0.9c-1.5,0-3.8-0.7-4.7-1.3L176.8,16.6z M147.4,17.5h6.1V7.7c0-0.4,0-0.9,0.2-1.3
			c0.2-0.6,0.8-1.4,1.9-1.4c1.4,0,2,1.3,2,3.2v9.3h6.1V7.8c0-0.4,0-0.9,0.2-1.3c0.3-0.8,0.9-1.5,1.9-1.5c1.4,0,2,1.2,2,3.3v9.1h6.1
			V7.4c0-4.8-2.1-7.4-5.8-7.4c-1.1,0-2.2,0.2-3,0.7c-0.9,0.5-1.7,1.1-2.4,2.1h-0.1C161.9,1,160.2,0,158,0c-3,0-4.5,1.7-5.1,2.5h-0.1
			l-0.2-2.2h-5.3c0.1,1.6,0.1,3.5,0.1,5.8V17.5z M143.5,0.4h-6.3v10.1c0,0.3,0,0.7-0.1,0.9c-0.2,0.7-0.9,1.5-2,1.5
			c-1.5,0-2.2-1.2-2.2-3.4V0.4h-6.3v10.1c0,4.9,2.3,7.4,6.1,7.4c3.1,0,4.6-1.7,5.2-2.6h0.1l0.3,2.3h5.4c-0.1-1.5-0.1-3.4-0.1-5.8
			V0.4z M112.8,6.9c0.1-1.1,0.8-2.8,2.7-2.8c2,0,2.4,1.8,2.4,2.8H112.8z M123.5,11.1c0.1-0.4,0.2-1.4,0.2-2.4c0-4.7-2.4-8.8-7.9-8.8
			c-6.3,0-8.9,5.1-8.9,9.1c0,5.4,3.4,8.7,9.4,8.7c2.1,0,4.3-0.3,6.4-1.1l-0.8-4.2c-1.5,0.5-3.1,0.7-4.7,0.7c-2.2,0-4.2-0.8-4.4-2.1
			H123.5z M91.2,16.6c1.4,0.7,3.5,1.2,5.9,1.2c5.3,0,7.8-2.5,7.8-5.7c0-2.4-1.3-4.2-4.7-5.3c-2-0.7-2.6-1-2.6-1.6c0-0.7,0.6-1,1.7-1
			c1.4,0,3,0.6,3.8,0.9l1-4.2c-1.1-0.5-3-1-5.1-1c-4.5,0-7.4,2.5-7.4,5.9c0,2,1.3,4,5,5.2c1.8,0.6,2.2,0.8,2.2,1.5
			c0,0.7-0.5,0.9-1.9,0.9c-1.5,0-3.8-0.7-4.7-1.3L91.2,16.6z M88.2,0.4h-6.3v10.1c0,0.3,0,0.7-0.1,0.9c-0.2,0.7-0.9,1.5-2,1.5
			c-1.5,0-2.2-1.2-2.2-3.4V0.4h-6.3v10.1c0,4.9,2.3,7.4,6.1,7.4c3.1,0,4.6-1.7,5.2-2.6h0.1l0.3,2.3h5.4c-0.1-1.5-0.1-3.4-0.1-5.8
			V0.4z M41,17.5h6.1V7.7c0-0.4,0-0.9,0.2-1.3C47.5,5.9,48.1,5,49.2,5c1.4,0,2,1.3,2,3.2v9.3h6.1V7.8c0-0.4,0-0.9,0.2-1.3
			C57.8,5.7,58.4,5,59.4,5c1.4,0,2,1.2,2,3.3v9.1h6.1V7.4c0-4.8-2.1-7.4-5.8-7.4c-1.1,0-2.2,0.2-3,0.7c-0.9,0.5-1.7,1.1-2.4,2.1
			h-0.1C55.5,1,53.8,0,51.6,0c-3,0-4.5,1.7-5.1,2.5h-0.1l-0.2-2.2h-5.3C41,2,41,3.9,41,6.2V17.5z"/>
	</g>
</g>
</svg>
