<?xml version="1.0" encoding="utf-8"?>
<!-- Generator: Adobe Illustrator 18.0.0, SVG Export Plug-In . SVG Version: 6.00 Build 0)  -->
<!DOCTYPE svg PUBLIC "-//W3C//DTD SVG 1.1//EN" "http://www.w3.org/Graphics/SVG/1.1/DTD/svg11.dtd">
<svg version="1.1" id="Layer_1" xmlns="http://www.w3.org/2000/svg" xmlns:xlink="http://www.w3.org/1999/xlink" x="0px" y="0px"
	 viewBox="0 0 30 30" enable-background="new 0 0 30 30" xml:space="preserve">
<path opacity="0.65" fill="#C8D1D4" d="M25.7,0H4.3C1.9,0,0,1.9,0,4.3v21.4C0,28.1,1.9,30,4.3,30h21.4c2.4,0,4.3-1.9,4.3-4.3V4.3
	C30,1.9,28.1,0,25.7,0z M18.1,9.9h-0.8c-0.8,0-1.1,0.1-1.1,0.8v1.8h1.8v2.1h-1.8v7.9h-2.9v-7.9h-1.6v-2.1h1.6v-2c0-2.1,1-3,3.3-3
	c0.4,0,0.9,0,1.4,0.1V9.9z"/>
</svg>
