<?xml version="1.0" encoding="utf-8"?>
<!-- Generator: Adobe Illustrator 18.0.0, SVG Export Plug-In . SVG Version: 6.00 Build 0)  -->
<!DOCTYPE svg PUBLIC "-//W3C//DTD SVG 1.1//EN" "http://www.w3.org/Graphics/SVG/1.1/DTD/svg11.dtd">
<svg version="1.1" id="Layer_1" xmlns="http://www.w3.org/2000/svg" xmlns:xlink="http://www.w3.org/1999/xlink" x="0px" y="0px"
	 viewBox="0 0 81 81" enable-background="new 0 0 81 81" xml:space="preserve">
<g display="none">
	<circle display="inline" fill-rule="evenodd" clip-rule="evenodd" fill="#010101" cx="40.5" cy="40.5" r="40.5"/>
	<g display="inline">
		<line fill="none" stroke="#FFFFFF" stroke-width="2.7" stroke-miterlimit="10" x1="39.6" y1="53.2" x2="35.1" y2="37.4"/>
		<line fill="none" stroke="#FFFFFF" stroke-width="2.7" stroke-miterlimit="10" x1="41.4" y1="53.2" x2="46" y2="37.4"/>
		<circle fill="none" stroke="#FFFFFF" stroke-width="2.7" stroke-miterlimit="10" cx="40.6" cy="34.7" r="2.7"/>
		<path fill="none" stroke="#FFFFFF" stroke-width="2.7" stroke-miterlimit="10" d="M37.8,34.7c0,1.5-1.2,2.7-2.7,2.7"/>
		<path fill="none" stroke="#FFFFFF" stroke-width="2.7" stroke-miterlimit="10" d="M43.3,34.7c0,1.5,1.2,2.7,2.7,2.7"/>
	</g>
	<g display="inline">
		<path fill="none" stroke="#26CAD3" stroke-width="2.7" stroke-miterlimit="10" d="M34.7,61.2v-6.7c0-2.8-0.8-5.5-2.3-7.8l-4.1-6.4
			c-1.5-2.3-2.3-5-2.3-7.8v0c0-8,6.5-14.4,14.4-14.4S55,24.7,55,32.6v0c0,2.8-0.8,5.5-2.3,7.8l-4.1,6.4c-1.5,2.3-2.3,5-2.3,7.8v6.7
			c0,1.1-0.9,2-2,2h-7.7C35.6,63.2,34.7,62.3,34.7,61.2z"/>
		<g>
			<line fill="none" stroke="#26CAD3" stroke-width="2.7" stroke-miterlimit="10" x1="46.6" y1="58.6" x2="34.4" y2="58.6"/>
			<line fill="none" stroke="#26CAD3" stroke-width="2.7" stroke-miterlimit="10" x1="46.6" y1="54.1" x2="34.4" y2="54.1"/>
		</g>
	</g>
</g>
<g>
	<circle fill-rule="evenodd" clip-rule="evenodd" fill="#010101" cx="40.5" cy="40.5" r="40.5"/>
	<g>
		<circle fill="none" stroke="#FFFFFF" stroke-width="2.7" stroke-miterlimit="10" cx="53.7" cy="33.1" r="8.2"/>
		<circle fill="none" stroke="#FFFFFF" stroke-width="2.7" stroke-miterlimit="10" cx="30.6" cy="44.6" r="11.5"/>
		<path fill="none" stroke="#26CAD3" stroke-width="2.7" stroke-miterlimit="10" d="M66.3,28.6c-1.1-3.1-3.3-5.6-6.3-7.1
			c-1.7-0.8-3.5-1.2-5.4-1.2c-1.4,0-2.8,0.3-4.1,0.7l0,0l0,0c-0.1,0-0.1,0-0.2,0.1l-24,8.3l0,0C19.3,31,14,37.3,14,44.8
			c0,8.8,7.1,15.9,15.9,15.9c3,0,5.8-0.8,8.2-2.3v0l0,0c0.4-0.2,0.7-0.5,1.1-0.7l22-14.6l0,0c1.9-1.2,3.6-3,4.6-5.1
			C67.2,35,67.4,31.7,66.3,28.6z"/>
		<circle fill="#FFFFFF" cx="53.7" cy="33.1" r="1.1"/>
		<circle fill="#FFFFFF" cx="30.6" cy="44.6" r="1.7"/>
	</g>
</g>
</svg>
