<?xml version="1.0" encoding="utf-8"?>
<!-- Generator: Adobe Illustrator 18.0.0, SVG Export Plug-In . SVG Version: 6.00 Build 0)  -->
<!DOCTYPE svg PUBLIC "-//W3C//DTD SVG 1.1//EN" "http://www.w3.org/Graphics/SVG/1.1/DTD/svg11.dtd">
<svg version="1.1"
	 id="svg2" xmlns:dc="http://purl.org/dc/elements/1.1/" xmlns:cc="http://creativecommons.org/ns#" xmlns:sodipodi="http://sodipodi.sourceforge.net/DTD/sodipodi-0.dtd" xmlns:svg="http://www.w3.org/2000/svg" xmlns:inkscape="http://www.inkscape.org/namespaces/inkscape" xmlns:rdf="http://www.w3.org/1999/02/22-rdf-syntax-ns#" sodipodi:docname="youtube.svg" inkscape:output_extension="org.inkscape.output.svg.inkscape" sodipodi:version="0.32" inkscape:version="0.47 r22583"
	 xmlns="http://www.w3.org/2000/svg" xmlns:xlink="http://www.w3.org/1999/xlink" x="0px" y="0px" viewBox="0 0 256 256"
	 enable-background="new 0 0 256 256" xml:space="preserve">
<sodipodi:namedview  inkscape:zoom="0.12374369" bordercolor="#666666" pagecolor="#ffffff" showgrid="false" inkscape:cy="64.459739" borderopacity="1.0" inkscape:cx="112.30587" id="base" inkscape:window-x="1" inkscape:window-maximized="0" inkscape:pageopacity="0.0" inkscape:window-height="682" inkscape:current-layer="layer1" inkscape:pageshadow="2" inkscape:window-y="298" inkscape:window-width="685" inkscape:document-units="px">
	</sodipodi:namedview>
<g>
	<g>
		<path fill="#C8D2D5" d="M209,10.5H45C25.4,10.5,9.5,26.4,9.5,46v164c0,19.6,15.9,35.5,35.5,35.5h164c19.6,0,35.5-15.9,37.5-34.8
			v-164C244.5,26.4,228.6,10.5,209,10.5z M155.2,56h13.2v46.9c0,3,1.1,4.5,3.5,4.5c1.7,0,3.2-0.6,5.9-2.4V56h13.2v60.2h-12.1v0
			l-1.1-5.2c-5.5,4.5-8.6,6.1-12.4,6.1c-3.2,0-6.5-1.5-8-3.4c-1.7-2.1-2.1-4.2-2.1-10.4V56z M105.2,72.3c0-11.3,6.1-17,18-17
			c12,0,18,5.7,18,17v27.9c0,11.3-6.1,17-18,17c-12,0-18-5.7-18-17V72.3z M73.9,35.4l2,7.9l1.7,5.8l1.4,5.7l1.4,5.9l1.1,5H82l1.1-5
			l1.2-5.9l1.5-5.7l1.5-5.8l2.1-7.9h14.8L88.5,82.7v33.6H74.4V82.7L58.6,35.4H73.9z M228.3,193.7c0,19.6-15.9,35.5-35.5,35.5H59.7
			c-19.6,0-35.5-15.9-35.5-35.5v-30.9c0-19.6,15.9-35.5,35.5-35.5h133.1c19.6,0,35.5,15.9,35.5,35.5V193.7z"/>
		<path fill="#C8D2D5" d="M123.2,107.4c3,0,4.8-2.1,4.8-5.6V70.6c0-3.6-1.8-5.6-4.8-5.6c-3.2,0-4.8,1.9-4.8,5.6v31.3
			C118.3,105.4,120.2,107.4,123.2,107.4z"/>
	</g>
	<g>
		<path fill="#C8D2D5" d="M55.3,150.5h-12v-9.6h37.3v9.6H68.1v63.9H55.3V150.5z"/>
		<path fill="#C8D2D5" d="M104.4,214.4l-1-4.7c-5,4.1-7.9,5.5-11.3,5.5c-2.9,0-5.9-1.3-7.3-3.1c-1.5-1.9-1.9-3.9-1.9-9.5v-43h12
			v42.6c0,2.8,1,4.1,3.2,4.1c1.5,0,2.9-0.6,5.4-2.2v-44.5h12v54.8L104.4,214.4L104.4,214.4z"/>
		<path fill="#C8D2D5" d="M128.3,140.9h12v23.9c4.7-4.2,7.9-5.8,11.4-5.8c2.8,0,5.8,1.3,7.2,3.1c1.5,2,1.9,4,1.9,9.8v30.4
			c0,5.7-0.4,7.7-1.9,9.7c-1.4,1.9-4.4,3.2-7.3,3.2c-3.6,0-6.6-1.7-11.3-6v5.2h-12V140.9z M145.7,206.4c2.2,0,3.2-1.3,3.2-4.1v-30.4
			c0-2.9-1-4.1-3.2-4.1c-1.5,0-2.9,0.6-5.4,2.2v34.2C142.8,205.8,144.2,206.4,145.7,206.4z"/>
		<path fill="#C8D2D5" d="M206.2,195.2v2c0.1,1.4,0.1,2.4,0.1,3c0,9.7-5.9,15-16.8,15c-10.3,0-16.1-5.5-16.1-15.4v-25.5
			c0-10.4,5.5-15.3,16.7-15.3c9.9,0,16.1,5.2,16.1,13.7v16.1h-20.8v12c0,4,1.2,5.6,4.4,5.6c1.5,0,2.9-0.7,3.6-1.7
			c0.7-1,0.8-2.2,0.8-6.2c0-1,0-1.8,0-3.3L206.2,195.2L206.2,195.2z M194.2,181v-9.3c0-2.5-1.7-4-4.4-4c-2.8,0-4.4,1.4-4.4,4v9.3
			H194.2z"/>
	</g>
</g>
</svg>
