<?xml version="1.0" encoding="utf-8"?>
<!-- Generator: Adobe Illustrator 18.0.0, SVG Export Plug-In . SVG Version: 6.00 Build 0)  -->
<!DOCTYPE svg PUBLIC "-//W3C//DTD SVG 1.1//EN" "http://www.w3.org/Graphics/SVG/1.1/DTD/svg11.dtd">
<svg version="1.1" id="Layer_1" xmlns="http://www.w3.org/2000/svg" xmlns:xlink="http://www.w3.org/1999/xlink" x="0px" y="0px"
	 viewBox="0 0 81 81" enable-background="new 0 0 81 81" xml:space="preserve">
<g display="none">
	<circle display="inline" fill-rule="evenodd" clip-rule="evenodd" fill="#010101" cx="40.5" cy="40.5" r="40.5"/>
	<g display="inline">
		<line fill="none" stroke="#FFFFFF" stroke-width="2.7" stroke-miterlimit="10" x1="39.6" y1="53.2" x2="35.1" y2="37.4"/>
		<line fill="none" stroke="#FFFFFF" stroke-width="2.7" stroke-miterlimit="10" x1="41.4" y1="53.2" x2="46" y2="37.4"/>
		<circle fill="none" stroke="#FFFFFF" stroke-width="2.7" stroke-miterlimit="10" cx="40.6" cy="34.7" r="2.7"/>
		<path fill="none" stroke="#FFFFFF" stroke-width="2.7" stroke-miterlimit="10" d="M37.8,34.7c0,1.5-1.2,2.7-2.7,2.7"/>
		<path fill="none" stroke="#FFFFFF" stroke-width="2.7" stroke-miterlimit="10" d="M43.3,34.7c0,1.5,1.2,2.7,2.7,2.7"/>
	</g>
	<g display="inline">
		<path fill="none" stroke="#26CAD3" stroke-width="2.7" stroke-miterlimit="10" d="M34.7,61.2v-6.7c0-2.8-0.8-5.5-2.3-7.8l-4.1-6.4
			c-1.5-2.3-2.3-5-2.3-7.8v0c0-8,6.5-14.4,14.4-14.4S55,24.7,55,32.6v0c0,2.8-0.8,5.5-2.3,7.8l-4.1,6.4c-1.5,2.3-2.3,5-2.3,7.8v6.7
			c0,1.1-0.9,2-2,2h-7.7C35.6,63.2,34.7,62.3,34.7,61.2z"/>
		<g>
			<line fill="none" stroke="#26CAD3" stroke-width="2.7" stroke-miterlimit="10" x1="46.6" y1="58.6" x2="34.4" y2="58.6"/>
			<line fill="none" stroke="#26CAD3" stroke-width="2.7" stroke-miterlimit="10" x1="46.6" y1="54.1" x2="34.4" y2="54.1"/>
		</g>
	</g>
</g>
<g display="none">
	<circle display="inline" fill-rule="evenodd" clip-rule="evenodd" fill="#010101" cx="40.5" cy="40.5" r="40.5"/>
	<g display="inline">
		<circle fill="none" stroke="#FFFFFF" stroke-width="2.7" stroke-miterlimit="10" cx="53.7" cy="33.1" r="8.2"/>
		<circle fill="none" stroke="#FFFFFF" stroke-width="2.7" stroke-miterlimit="10" cx="30.6" cy="44.6" r="11.5"/>
		<path fill="none" stroke="#26CAD3" stroke-width="2.7" stroke-miterlimit="10" d="M66.3,28.6c-1.1-3.1-3.3-5.6-6.3-7.1
			c-1.7-0.8-3.5-1.2-5.4-1.2c-1.4,0-2.8,0.3-4.1,0.7l0,0l0,0c-0.1,0-0.1,0-0.2,0.1l-24,8.3l0,0C19.3,31,14,37.3,14,44.8
			c0,8.8,7.1,15.9,15.9,15.9c3,0,5.8-0.8,8.2-2.3v0l0,0c0.4-0.2,0.7-0.5,1.1-0.7l22-14.6l0,0c1.9-1.2,3.6-3,4.6-5.1
			C67.2,35,67.4,31.7,66.3,28.6z"/>
		<circle fill="#FFFFFF" cx="53.7" cy="33.1" r="1.1"/>
		<circle fill="#FFFFFF" cx="30.6" cy="44.6" r="1.7"/>
	</g>
</g>
<g display="none">
	<circle display="inline" fill-rule="evenodd" clip-rule="evenodd" fill="#010101" cx="40.5" cy="40.5" r="40.5"/>
	<g display="inline">
		<path fill="none" stroke="#26CAD3" stroke-width="2.7" stroke-miterlimit="10" d="M27.7,63V53h-7c-1.4,0-2.6-1.1-2.6-2.6v-6.7
			l-2.4-1c-1.4-0.6-2.2-0.8-1.6-2.1l3.5-6.6c0-8.8,7.1-15.9,15.9-15.9s15.9,7.1,15.9,15.9c0,4.1-1.6,7.8-4.1,10.7V63"/>
		<path fill="none" stroke="#FFFFFF" stroke-width="2.7" stroke-miterlimit="10" d="M45.3,63V53h-7c-1.4,0-2.6-1.1-2.6-2.6v-6.7
			l-2.4-1c-1.4-0.6-2.2-0.8-1.6-2.1l3.5-6.6c0-8.8,7.1-15.9,15.9-15.9S67,25.1,67,33.9c0,4.1-1.6,7.8-4.1,10.7V63"/>
	</g>
</g>
<g>
	<circle fill-rule="evenodd" clip-rule="evenodd" fill="#010101" cx="40.5" cy="40.5" r="40.5"/>
	<polygon fill="none" stroke="#FFFFFF" stroke-width="1.8" stroke-miterlimit="10" points="64.2,51.2 71.5,53 68.5,48.1 73.2,45.3 
		66.2,43.6 61.5,46.4 	"/>
	<line fill="none" stroke="#FFFFFF" stroke-width="1.8" stroke-miterlimit="10" x1="62.3" y1="46.5" x2="48.5" y2="43.1"/>
	<path fill="#010101" stroke="#26CAD3" stroke-width="2.7" stroke-miterlimit="10" d="M56.6,45.4c2.2-1.9,3.7-4.8,3.7-8
		c0-5.8-4.7-10.6-10.6-10.6c-3.7,0-7,2.9-8.9,5.9c-1.9-2.9-5.2-5.9-8.9-5.9c-5.8,0-10.6,4.7-10.6,10.6c0,3.2,1.4,6,3.7,8l15.8,13.3
		L56.6,45.4z"/>
	<line fill="none" stroke="#FFFFFF" stroke-width="1.8" stroke-miterlimit="10" x1="27.1" y1="38.9" x2="8.9" y2="34.4"/>
	<polyline fill="none" stroke="#FFFFFF" stroke-width="1.8" stroke-miterlimit="10" points="14.5,41.6 8.9,34.4 16.9,30.8 	"/>
	<path fill="none" stroke="#26CAD3" stroke-width="2.7" stroke-miterlimit="10" d="M28.7,33.8c-0.9,0.9-1.4,2.1-1.4,3.5
		c0,1.9,1,3.2,1.7,3.7l2.4,2.1"/>
</g>
</svg>
