<?xml version="1.0" encoding="utf-8"?>
<!-- Generator: Adobe Illustrator 18.0.0, SVG Export Plug-In . SVG Version: 6.00 Build 0)  -->
<!DOCTYPE svg PUBLIC "-//W3C//DTD SVG 1.1//EN" "http://www.w3.org/Graphics/SVG/1.1/DTD/svg11.dtd">
<svg version="1.1" id="Layer_1" xmlns="http://www.w3.org/2000/svg" xmlns:xlink="http://www.w3.org/1999/xlink" x="0px" y="0px"
	 viewBox="0 0 31 31" enable-background="new 0 0 31 31" xml:space="preserve">
<path opacity="0.65" fill="#C9D2D5" d="M15.5,0C6.9,0,0,6.9,0,15.5S6.9,31,15.5,31C24.1,31,31,24.1,31,15.5S24.1,0,15.5,0z
	 M22.3,11.9c0,0,0,0.1,0,0.1c0,0,0,0,0,0c0.1,0.4,0.1,0.9,0.1,1.3c0,5-4.4,9-9.8,9c-2,0-3.9-0.6-5.4-1.5c0.1,0,0.1,0,0.2,0
	c1.7,0,3.3-0.5,4.6-1.4c-1.6-0.3-2.8-1.3-3.2-2.6C9.1,17,9.6,17,10,17c0.2,0,0.3,0,0.5,0c0,0-0.1,0-0.1-0.1
	c-1.6-0.6-2.7-1.9-2.7-3.5c0,0,0,0,0,0c0,0,0,0,0,0c0,0,0.1,0,0.1,0c0.5,0.2,1,0.4,1.6,0.5c-1-0.9-1.7-2-1.7-3.2
	c0-0.6,0.2-1.2,0.5-1.8c1.1,2,3.9,3.6,7.2,3.8c-0.1-0.3-0.1-0.5-0.1-0.8c0-1.9,1.6-3.5,3.5-3.5c1,0,1.9,0.4,2.6,1.1
	c0.8-0.1,1.6-0.4,2.2-0.9c-0.2,0.9-0.8,1.6-1.5,2c0,0,0,0,0,0.1c0.6-0.1,1.3-0.3,1.8-0.6C23.5,11,22.9,11.6,22.3,11.9z"/>
</svg>
